:SAMPLES-PER-SECOND 30
:FULLY-SPECIFIED
:DEGREES
1
root  88.1553 39.2681 -4.74975 -144.549 -86.2008 141.13
RightUpLeg  -1.20746 -7.57508 -4.0751
RightLeg  7.47073 8.37045 0.0237374
RightFoot  -3.8446 -0.00824 -0.322265
RightToes  -3.31784e-009 0 -3.6325e-017
Spine  8.25081 1.76286 3.00094
Spine1  0.778917 2.2388 -1.04954
HEad  -13.3682 -6.1234 -5.03544
LeftShoulder1  -0.691363 5.3514 -31.2635
LeftArm  2.25626 8.80014 -45.7811
LeftForeArm  26.9305 -16.5371 -6.10016
LeftHand  -0.0317554 11.6866 0.432696
RightShoulder  -1.26212 -6.92888 30.3499
RightArm  20.0403 2.54932 47.6462
RightForeArm  17.6624 11.1036 7.90689
RightHand  -0.0797475 2.90204 -1.33846
LeftUpLeg  0.123235 5.75565 0.737963
LeftLeg  3.34682 2.78081 -0.17117
LeftFoot  -1.01814 -0.0888735 1.14096
LeftToes  1.28511e-009 -3.60458e-011 6.16399e-011
2
root  88.1563 39.2679 -4.74975 -144.151 -86.2155 140.723
RightUpLeg  -1.21753 -7.6204 -4.10696
RightLeg  7.52132 8.35518 0.0525013
RightFoot  -3.81118 -0.00278463 -0.406991
RightToes  -3.31784e-009 0 -3.6325e-017
Spine  8.10456 1.79995 3.04448
Spine1  1.0099 2.28405 -1.06219
HEad  -13.3497 -6.18829 -5.09229
LeftShoulder1  -0.673993 5.30604 -31.2429
LeftArm  2.05339 8.62345 -45.8619
LeftForeArm  27.1548 -16.405 -6.14451
LeftHand  -0.0353246 11.7951 0.472394
RightShoulder  -1.25563 -6.91334 30.3266
RightArm  19.9242 2.52169 47.6314
RightForeArm  17.6384 11.1683 7.85231
RightHand  -0.0875979 2.93078 -1.44623
LeftUpLeg  0.102419 5.72718 0.714864
LeftLeg  3.39649 2.77167 -0.155768
LeftFoot  -0.996594 -0.0904891 1.16607
LeftToes  1.28511e-009 -3.60458e-011 6.16399e-011
3
root  88.1581 39.2743 -4.74975 -143.158 -86.2259 139.682
RightUpLeg  -1.10503 -7.68965 -4.1923
RightLeg  7.40488 8.37078 0.0787659
RightFoot  -3.76323 -0.00153012 -0.426475
RightToes  -3.31784e-009 0 -3.6325e-017
Spine  8.12626 1.80251 3.05762
Spine1  1.03796 2.29981 -1.13548
HEad  -13.2023 -6.3086 -5.25652
LeftShoulder1  -0.644624 5.22635 -31.2695
LeftArm  1.86455 8.55553 -45.801
LeftForeArm  27.3638 -16.2349 -6.21085
LeftHand  -0.0377241 11.826 0.476539
RightShoulder  -1.24036 -6.87604 30.2772
RightArm  19.696 2.50354 47.6593
RightForeArm  17.8985 11.0498 7.84547
RightHand  -0.0870148 3.08203 -1.42143
LeftUpLeg  0.161989 5.7026 0.655935
LeftLeg  3.36677 2.77625 -0.139466
LeftFoot  -0.907834 -0.0862435 1.10008
LeftToes  1.28511e-009 -3.60458e-011 6.16399e-011
4
root  88.1573 39.2705 -4.74951 -143.821 -86.2206 140.369
RightUpLeg  -1.15822 -7.63203 -4.12876
RightLeg  7.45106 8.36816 0.0508275
RightFoot  -3.80026 -0.00420437 -0.384941
RightToes  -3.31784e-009 0 -3.6325e-017
Spine  8.12092 1.80987 3.1482
Spine1  1.01202 2.321 -1.1833
HEad  -13.0676 -6.3561 -5.33579
LeftShoulder1  -0.657923 5.2615 -31.2772
LeftArm  2.42085 8.6469 -45.7136
LeftForeArm  26.9059 -16.4879 -6.14946
LeftHand  -0.0396367 11.8983 0.437049
RightShoulder  -1.23397 -6.8601 30.2939
RightArm  19.5752 2.62821 47.6639
RightForeArm  17.7973 10.742 7.95971
RightHand  -0.122918 3.51184 -1.85326
LeftUpLeg  0.197498 5.72352 0.695281
LeftLeg  3.24911 2.76625 -0.150535
LeftFoot  -0.93899 -0.0939486 1.21985
LeftToes  1.28511e-009 -3.60458e-011 6.16399e-011
5
root  88.1678 39.2676 -4.74812 -142.275 -86.3464 138.799
RightUpLeg  -1.14189 -7.6837 -4.15933
RightLeg  7.51471 8.2314 0.0721847
RightFoot  -3.89988 -0.0187139 -0.159611
RightToes  -3.31784e-009 0 -3.6325e-017
Spine  8.32013 1.73209 3.16353
Spine1  0.804095 2.2453 -1.17691
HEad  -13.0271 -6.1749 -5.21174
LeftShoulder1  -0.655004 5.253 -31.2923
LeftArm  2.64997 8.70643 -45.557
LeftForeArm  26.7767 -16.5451 -6.15065
LeftHand  -0.0241543 11.9969 0.697856
RightShoulder  -1.23441 -6.87076 30.2822
RightArm  19.5866 2.64763 47.6809
RightForeArm  17.5869 10.7231 7.98415
RightHand  -0.156167 3.19431 -2.34625
LeftUpLeg  0.156129 5.69768 0.688564
LeftLeg  3.31098 2.66759 -0.151817
LeftFoot  -0.943113 -0.0919529 1.18883
LeftToes  1.28511e-009 -3.60458e-011 6.16399e-011
